<?xml version="1.0" encoding="UTF-8"?>
<svg version="1.1" xmlns="http://www.w3.org/2000/svg" width="322" height="57">
<path d="M0 0 C1.98 0 3.96 0 6 0 C6.33 6.6 6.66 13.2 7 20 C8.19625 18.515 9.3925 17.03 10.625 15.5 C12.6640625 12.96875 12.6640625 12.96875 15 11 C18.2734375 10.71875 18.2734375 10.71875 21 11 C18.50127818 14.8373228 15.9156164 18.45960866 13 22 C14.27973764 26.69237133 16.96884608 29.16056126 20.44140625 32.3515625 C22 34 22 34 23 37 C20.07161008 37.62306169 18.8110399 37.86571881 16 37 C12.62956225 33.96020646 9.80441287 30.5611592 7 27 C6.67 30.3 6.34 33.6 6 37 C4.02 37 2.04 37 0 37 C0 24.79 0 12.58 0 0 Z " fill="#E6E6E6" transform="translate(236,13)"/>
<path d="M0 0 C1.98 0 3.96 0 6 0 C6.33 6.6 6.66 13.2 7 20 C8.19625 18.515 9.3925 17.03 10.625 15.5 C12.6640625 12.96875 12.6640625 12.96875 15 11 C18.2734375 10.71875 18.2734375 10.71875 21 11 C18.50127818 14.8373228 15.9156164 18.45960866 13 22 C14.27973764 26.69237133 16.96884608 29.16056126 20.44140625 32.3515625 C22 34 22 34 23 37 C20.07161008 37.62306169 18.8110399 37.86571881 16 37 C12.62956225 33.96020646 9.80441287 30.5611592 7 27 C6.67 30.3 6.34 33.6 6 37 C4.02 37 2.04 37 0 37 C0 24.79 0 12.58 0 0 Z " fill="#E6E6E6" transform="translate(84,13)"/>
<path d="M0 0 C1.18851563 0.00902344 2.37703125 0.01804687 3.6015625 0.02734375 C4.51679688 0.03894531 5.43203125 0.05054688 6.375 0.0625 C6.705 1.7125 7.035 3.3625 7.375 5.0625 C6.68792969 5.05089844 6.00085938 5.03929687 5.29296875 5.02734375 C4.39191406 5.01832031 3.49085938 5.00929688 2.5625 5 C1.66917969 4.98839844 0.77585938 4.97679687 -0.14453125 4.96484375 C-2.75913791 4.95240033 -2.75913791 4.95240033 -5.625 6.0625 C-6.0223714 8.4119662 -6.0223714 8.4119662 -5.625 11.0625 C-3.58019631 13.05550375 -3.58019631 13.05550375 -0.875 14.625 C7.21778075 19.7480615 7.21778075 19.7480615 9.375 24.0625 C9.78704834 28.69804388 9.24954146 31.36666098 6.375 35.0625 C3.1849206 37.09511696 0.62068228 37.33308067 -3.125 37.3125 C-4.0634375 37.31765625 -5.001875 37.3228125 -5.96875 37.328125 C-8.66547676 37.05845232 -10.31449293 36.4357259 -12.625 35.0625 C-12.625 33.4125 -12.625 31.7625 -12.625 30.0625 C-10.830625 30.5884375 -10.830625 30.5884375 -9 31.125 C-5.24490067 32.07211209 -2.4181147 32.08016492 1.375 31.0625 C2.61820497 30.01648369 2.61820497 30.01648369 2.734375 27.72265625 C2.64258721 24.90612591 2.64258721 24.90612591 0.328125 23.18359375 C-0.56390625 22.62800781 -1.4559375 22.07242188 -2.375 21.5 C-10.46778075 16.3769385 -10.46778075 16.3769385 -12.625 12.0625 C-13.05523798 8.19035818 -12.94169086 6.53753629 -10.75 3.25 C-7.22611136 -0.37753242 -4.94923776 -0.04852194 0 0 Z " fill="#E6E6E6" transform="translate(149.625,13.9375)"/>
<path d="M0 0 C1.18851563 0.00902344 2.37703125 0.01804687 3.6015625 0.02734375 C4.51679688 0.03894531 5.43203125 0.05054688 6.375 0.0625 C6.705 1.7125 7.035 3.3625 7.375 5.0625 C6.68792969 5.05089844 6.00085938 5.03929687 5.29296875 5.02734375 C4.39191406 5.01832031 3.49085937 5.00929688 2.5625 5 C1.66917969 4.98839844 0.77585937 4.97679687 -0.14453125 4.96484375 C-2.75913791 4.95240033 -2.75913791 4.95240033 -5.625 6.0625 C-6.0223714 8.4119662 -6.0223714 8.4119662 -5.625 11.0625 C-3.58019631 13.05550375 -3.58019631 13.05550375 -0.875 14.625 C7.21778075 19.7480615 7.21778075 19.7480615 9.375 24.0625 C9.78704834 28.69804388 9.24954146 31.36666098 6.375 35.0625 C3.1849206 37.09511696 0.62068228 37.33308067 -3.125 37.3125 C-4.0634375 37.31765625 -5.001875 37.3228125 -5.96875 37.328125 C-8.66547676 37.05845232 -10.31449293 36.4357259 -12.625 35.0625 C-12.625 33.4125 -12.625 31.7625 -12.625 30.0625 C-10.830625 30.5884375 -10.830625 30.5884375 -9 31.125 C-5.24490067 32.07211209 -2.4181147 32.08016492 1.375 31.0625 C2.61820497 30.01648369 2.61820497 30.01648369 2.734375 27.72265625 C2.64258721 24.90612591 2.64258721 24.90612591 0.328125 23.18359375 C-0.56390625 22.62800781 -1.4559375 22.07242188 -2.375 21.5 C-10.46778075 16.3769385 -10.46778075 16.3769385 -12.625 12.0625 C-13.05523798 8.19035818 -12.94169086 6.53753629 -10.75 3.25 C-7.22611136 -0.37753242 -4.94923776 -0.04852194 0 0 Z " fill="#E6E6E6" transform="translate(24.625,13.9375)"/>
<path d="M0 0 C1.28197266 -0.05607422 1.28197266 -0.05607422 2.58984375 -0.11328125 C5.0625 0.3125 5.0625 0.3125 7.33203125 1.72265625 C9.95587063 5.64953099 9.73731258 9.43505582 9.8125 14.0625 C9.84214844 14.95066406 9.87179688 15.83882812 9.90234375 16.75390625 C9.97286918 18.94019449 10.02564637 21.12542768 10.0625 23.3125 C11.0525 23.3125 12.0425 23.3125 13.0625 23.3125 C13.0625 24.3025 13.0625 25.2925 13.0625 26.3125 C9.6875 26.4375 9.6875 26.4375 6.0625 26.3125 C5.4025 25.6525 4.7425 24.9925 4.0625 24.3125 C3.0725 24.9725 2.0825 25.6325 1.0625 26.3125 C-5.91513578 26.97703674 -5.91513578 26.97703674 -9.4375 24.6875 C-11.39312482 21.59109404 -11.53774477 19.91396865 -10.9375 16.3125 C-8.70543569 13.46469381 -7.38757001 12.46252334 -3.9375 11.3125 C-2.54310336 11.24584624 -1.14580125 11.22711801 0.25 11.25 C2.1371875 11.2809375 2.1371875 11.2809375 4.0625 11.3125 C3.7325 9.0025 3.4025 6.6925 3.0625 4.3125 C-3.00014222 4.97514086 -3.00014222 4.97514086 -8.9375 6.3125 C-8.6075 4.6625 -8.2775 3.0125 -7.9375 1.3125 C-5.06927682 0.35642561 -2.99505254 0.08557293 0 0 Z M-4.9375 16.3125 C-5.2675 17.3025 -5.5975 18.2925 -5.9375 19.3125 C-4.7729799 20.97871425 -4.7729799 20.97871425 -2.9375 22.3125 C-0.26270673 22.05154456 1.66345141 21.5120243 4.0625 20.3125 C4.0625 18.3325 4.0625 16.3525 4.0625 14.3125 C0.24742784 14.3125 -1.61658998 14.60716783 -4.9375 16.3125 Z " fill="#E6E6E6" transform="translate(217.9375,23.6875)"/>
<path d="M0 0 C1.28197266 -0.05607422 1.28197266 -0.05607422 2.58984375 -0.11328125 C5.0625 0.3125 5.0625 0.3125 7.33203125 1.72265625 C9.95587063 5.64953099 9.73731258 9.43505582 9.8125 14.0625 C9.84214844 14.95066406 9.87179688 15.83882812 9.90234375 16.75390625 C9.97286918 18.94019449 10.02564637 21.12542768 10.0625 23.3125 C11.0525 23.3125 12.0425 23.3125 13.0625 23.3125 C13.0625 24.3025 13.0625 25.2925 13.0625 26.3125 C9.6875 26.4375 9.6875 26.4375 6.0625 26.3125 C5.4025 25.6525 4.7425 24.9925 4.0625 24.3125 C3.0725 24.9725 2.0825 25.6325 1.0625 26.3125 C-5.91513578 26.97703674 -5.91513578 26.97703674 -9.4375 24.6875 C-11.39312482 21.59109404 -11.53774477 19.91396865 -10.9375 16.3125 C-8.70543569 13.46469381 -7.38757001 12.46252334 -3.9375 11.3125 C-2.54310336 11.24584624 -1.14580125 11.22711801 0.25 11.25 C2.1371875 11.2809375 2.1371875 11.2809375 4.0625 11.3125 C3.7325 9.0025 3.4025 6.6925 3.0625 4.3125 C-3.00014222 4.97514086 -3.00014222 4.97514086 -8.9375 6.3125 C-8.6075 4.6625 -8.2775 3.0125 -7.9375 1.3125 C-5.06927682 0.35642561 -2.99505254 0.08557293 0 0 Z M-4.9375 16.3125 C-5.2675 17.3025 -5.5975 18.2925 -5.9375 19.3125 C-4.7729799 20.97871425 -4.7729799 20.97871425 -2.9375 22.3125 C-0.26270673 22.05154456 1.66345141 21.5120243 4.0625 20.3125 C4.0625 18.3325 4.0625 16.3525 4.0625 14.3125 C0.24742784 14.3125 -1.61658998 14.60716783 -4.9375 16.3125 Z " fill="#E6E6E6" transform="translate(66.9375,23.6875)"/>
<path d="M0 0 C3.07227784 2.04818523 4.62520024 3.47543858 5.51953125 7.11328125 C5.77950346 9.06480595 5.90002248 11.03377552 6 13 C0.72 13 -4.56 13 -10 13 C-7.81940167 19.84825895 -7.81940167 19.84825895 -4 22 C-1.4745777 22.0255089 -1.4745777 22.0255089 1.1875 21.625 C2.08855469 21.51414062 2.98960937 21.40328125 3.91796875 21.2890625 C4.60503906 21.19367187 5.29210937 21.09828125 6 21 C6 22.32 6 23.64 6 25 C1.76626016 27.11686992 -3.41504428 26.63160104 -8 26 C-12.09086548 23.81636234 -14.53257744 21.40226769 -16 17 C-16.42703124 10.48777352 -15.81184759 6.24443953 -11.375 1.125 C-7.60847033 -0.65914563 -4.07762121 -0.75592265 0 0 Z M-8.3125 4.75 C-10.3 6.93125 -10.3 6.93125 -10 10 C-6.7 10 -3.4 10 0 10 C-0.33 8.02 -0.66 6.04 -1 4 C-4.36073514 2.87975495 -5.40344448 2.54855258 -8.3125 4.75 Z " fill="#E6E6E6" transform="translate(197,24)"/>
<path d="M0 0 C3.07227784 2.04818523 4.62520024 3.47543858 5.51953125 7.11328125 C5.77950346 9.06480595 5.90002248 11.03377552 6 13 C0.72 13 -4.56 13 -10 13 C-7.81940167 19.84825895 -7.81940167 19.84825895 -4 22 C-1.4745777 22.0255089 -1.4745777 22.0255089 1.1875 21.625 C2.08855469 21.51414062 2.98960937 21.40328125 3.91796875 21.2890625 C4.60503906 21.19367187 5.29210937 21.09828125 6 21 C6 22.32 6 23.64 6 25 C1.76626016 27.11686992 -3.41504428 26.63160104 -8 26 C-12.09086548 23.81636234 -14.53257744 21.40226769 -16 17 C-16.42703124 10.48777352 -15.81184759 6.24443953 -11.375 1.125 C-7.60847033 -0.65914563 -4.07762121 -0.75592265 0 0 Z M-8.3125 4.75 C-10.3 6.93125 -10.3 6.93125 -10 10 C-6.7 10 -3.4 10 0 10 C-0.33 8.02 -0.66 6.04 -1 4 C-4.36073514 2.87975495 -5.40344448 2.54855258 -8.3125 4.75 Z " fill="#E6E6E6" transform="translate(126,24)"/>
<path d="M0 0 C1.98 0 3.96 0 6 0 C6 1.65 6 3.3 6 5 C8.31 5 10.62 5 13 5 C13 5.99 13 6.98 13 8 C10.69 8 8.38 8 6 8 C6.33 13.94 6.66 19.88 7 26 C8.65 26.33 10.3 26.66 12 27 C12 28.32 12 29.64 12 31 C4.54148472 31.36681223 4.54148472 31.36681223 2.0625 29.6875 C0.2415603 26.7954193 -0.12267499 24.31577403 -0.09765625 20.98828125 C-0.09282227 19.85229492 -0.09282227 19.85229492 -0.08789062 18.69335938 C-0.07951172 17.90767578 -0.07113281 17.12199219 -0.0625 16.3125 C-0.05798828 15.51521484 -0.05347656 14.71792969 -0.04882812 13.89648438 C-0.0370585 11.93095743 -0.01912348 9.96546915 0 8 C-0.99 8 -1.98 8 -3 8 C-3 7.01 -3 6.02 -3 5 C-2.01 5 -1.02 5 0 5 C0 3.35 0 1.7 0 0 Z " fill="#E6E6E6" transform="translate(165,19)"/>
<path d="M0 0 C1.98 0 3.96 0 6 0 C6 1.65 6 3.3 6 5 C8.31 5 10.62 5 13 5 C13 5.99 13 6.98 13 8 C10.69 8 8.38 8 6 8 C6.33 13.94 6.66 19.88 7 26 C8.65 26.33 10.3 26.66 12 27 C12 28.32 12 29.64 12 31 C4.54148472 31.36681223 4.54148472 31.36681223 2.0625 29.6875 C0.2415603 26.7954193 -0.12267499 24.31577403 -0.09765625 20.98828125 C-0.09282227 19.85229492 -0.09282227 19.85229492 -0.08789062 18.69335938 C-0.07951172 17.90767578 -0.07113281 17.12199219 -0.0625 16.3125 C-0.05798828 15.51521484 -0.05347656 14.71792969 -0.04882812 13.89648438 C-0.0370585 11.93095743 -0.01912348 9.96546915 0 8 C-0.99 8 -1.98 8 -3 8 C-3 7.01 -3 6.02 -3 5 C-2.01 5 -1.02 5 0 5 C0 3.35 0 1.7 0 0 Z " fill="#E6E6E6" transform="translate(40,19)"/>
<path d="M0 0 C1.65 0 3.3 0 5 0 C6.73046875 1.86328125 6.73046875 1.86328125 8.1875 4.3125 C8.67605469 5.11300781 9.16460937 5.91351563 9.66796875 6.73828125 C10.10753906 7.48464844 10.54710937 8.23101562 11 9 C11.99 10.485 11.99 10.485 13 12 C13.33 8.04 13.66 4.08 14 0 C14.99 0 15.98 0 17 0 C17 6.27 17 12.54 17 19 C15.35 19 13.7 19 12 19 C9.98046875 16.375 9.98046875 16.375 8.1875 13 C7.58292969 11.88625 6.97835938 10.7725 6.35546875 9.625 C5.68451172 8.325625 5.68451172 8.325625 5 7 C4.67 10.96 4.34 14.92 4 19 C2.68 19 1.36 19 0 19 C0 12.73 0 6.46 0 0 Z " fill="#E6E6E6" transform="translate(261,11)"/>
<path d="M0 0 C4.29 0 8.58 0 13 0 C13 0.99 13 1.98 13 3 C9.7 3 6.4 3 3 3 C3 4.65 3 6.3 3 8 C5.97 8 8.94 8 12 8 C12 8.99 12 9.98 12 11 C9.03 11 6.06 11 3 11 C3 13.64 3 16.28 3 19 C2.01 19 1.02 19 0 19 C0 12.73 0 6.46 0 0 Z " fill="#E6E6E6" transform="translate(282,11)"/>
<path d="M0 0 C5.28 0 10.56 0 16 0 C16 0.99 16 1.98 16 3 C14.02 3 12.04 3 10 3 C10 8.28 10 13.56 10 19 C9.01 19 8.02 19 7 19 C7 13.72 7 8.44 7 3 C4.69 3 2.38 3 0 3 C0 2.01 0 1.02 0 0 Z " fill="#E6E6E6" transform="translate(297,11)"/>
</svg>
