<svg id="Ebene_1" data-name="Ebene 1" xmlns="http://www.w3.org/2000/svg" viewBox="0 0 322 57"><defs><style>.cls-1{fill:#fff;}</style></defs><path class="cls-1" d="M9,34.61H12c.31,4.75,3.91,8.18,9.71,8.19,5.34,0,9-2.5,9-6.65,0-3.06-2.28-4.75-6.61-5.77l-5.57-1.28c-4.93-1.15-8.44-3.9-8.43-8.42,0-4.88,4.67-8.62,11.38-8.61S32.71,16,33.06,21.55H30c-.31-4-3.64-6.86-8.57-6.87s-8.22,2.5-8.23,5.83c0,3,2,4.75,6.16,5.72l6.11,1.43c5.07,1.15,8.4,3.94,8.39,8.36,0,5.48-5,9.36-12.12,9.34C13.94,45.35,9.15,41,9,34.61Z"/><path class="cls-1" d="M39.05,44.75,39.1,12.8h2.83l0,11.73v2.2a8.35,8.35,0,0,1,7.45-4.56c4.84,0,7.89,3.21,7.88,8.87l0,13.74H54.39l0-13.47c0-4.15-1.5-6.8-5.56-6.81s-6.94,3.6-7,7.48l0,12.78Z"/><path class="cls-1" d="M62.11,39c0-4,3.11-6,7.09-6.6l4.52-.73c1.87-.31,3.1-.86,3.11-2.55,0-2.78-2.1-4.57-5.2-4.57-4.06,0-5.76,2.32-5.94,5.1H62.81c.28-4,3.3-7.44,8.64-7.43s8.21,3.21,8.21,7.91l0,14.7H76.85V41.17a7.79,7.79,0,0,1-7.4,4.27C65.25,45.44,62.1,42.92,62.11,39Zm14.7-2.85V32.58c-.27.55-1.33,1-2.88,1.28L70,34.53c-2.93.55-5,1.82-5,4.47s2,4.16,4.74,4.16A6.82,6.82,0,0,0,76.81,36.14Z"/><path class="cls-1" d="M85.79,44.83l0-22h2.83v4.34a7.92,7.92,0,0,1,7.41-5,9.57,9.57,0,0,1,1.23.1v2.73A12.74,12.74,0,0,0,95.91,25c-4.33,0-7.26,3.09-7.27,8l0,11.83Z"/><path class="cls-1" d="M98.87,33.76c0-6.66,4.44-11.5,10.24-11.49,6.26,0,9.76,4.54,9.75,11.43v.64l-17.16,0c.08,5.71,3.13,8.87,7.6,8.87,3.38,0,6-1.54,6.59-5h2.83c-.6,4-3.71,7.3-9.47,7.29C103.05,45.5,98.85,41.29,98.87,33.76Zm17-1.61c-.08-4.48-2.45-7.54-6.74-7.55-4.11,0-7,3.23-7.27,7.52Z"/><path class="cls-1" d="M122.79,33.89c0-6.66,4-11.59,10.06-11.58a8.33,8.33,0,0,1,7.66,4.58V24.11l0-11.14h2.87l0,32h-2.88v-4a8.43,8.43,0,0,1-7.77,4.64C127,45.54,122.77,41,122.79,33.89Zm17.85,0c0-5.57-2.86-9.23-7.38-9.24s-7.54,3.73-7.55,9.26,3,9.32,7.42,9.32S140.63,39.54,140.64,33.88Z"/><path class="cls-1" d="M148.35,34.85h3.06c.31,4.75,3.91,8.18,9.71,8.19,5.34,0,8.95-2.49,9-6.65,0-3.06-2.28-4.75-6.61-5.76l-5.57-1.29c-4.93-1.15-8.44-3.89-8.43-8.41,0-4.89,4.67-8.62,11.38-8.61s11.22,3.9,11.58,9.47h-3.06c-.31-4-3.64-6.85-8.57-6.86s-8.22,2.5-8.23,5.83c0,3,2,4.75,6.16,5.72l6.11,1.42c5.07,1.15,8.39,3.94,8.39,8.37,0,5.48-5,9.35-12.12,9.34C153.31,45.59,148.52,41.19,148.35,34.85Z"/><path class="cls-1" d="M179.93,39.7l0-14.2h-4.33V23H180v-7h2.88l0,7h4.8v2.46h-4.79l0,14c0,2.6,1.31,3.33,3.32,3.34a7.42,7.42,0,0,0,1.78-.23V45.1a10.77,10.77,0,0,1-2.42.31C182.48,45.41,179.92,43.94,179.93,39.7Z"/><path class="cls-1" d="M190.07,33.92c0-6.67,4.45-11.5,10.25-11.49,6.25,0,9.76,4.53,9.75,11.43v.64l-17.17,0c.09,5.7,3.14,8.86,7.61,8.87,3.38,0,6-1.54,6.59-5h2.83c-.6,4-3.71,7.3-9.47,7.29C194.25,45.66,190.06,41.45,190.07,33.92Zm17-1.62c-.08-4.47-2.45-7.54-6.74-7.54-4.11,0-6.95,3.23-7.28,7.52Z"/><path class="cls-1" d="M213.94,39.25c0-4,3.11-6,7.09-6.61l4.52-.72c1.87-.32,3.1-.86,3.11-2.55,0-2.78-2.1-4.57-5.2-4.57-4.06,0-5.76,2.31-5.94,5.1h-2.88c.28-4,3.3-7.43,8.64-7.42s8.21,3.21,8.21,7.91l0,14.7h-2.78V41.42a7.78,7.78,0,0,1-7.4,4.28C217.08,45.69,213.93,43.18,213.94,39.25Zm14.7-2.85V32.84c-.27.55-1.33,1-2.88,1.27l-3.92.68c-2.93.54-5,1.82-5,4.47s2,4.15,4.74,4.16A6.83,6.83,0,0,0,228.64,36.4Z"/><path class="cls-1" d="M256.48,45.12h-3.93l-9.61-10.79-2.47,2.28,0,8.49h-2.83l.06-32h2.83l0,20.18c.69-.69,1.47-1.37,2.2-2.06l8.55-8.11h3.65L245,32.46Z"/><path class="cls-1" d="M261.89,29.93l0-18.63h3.65L275,27.21V24.87l0-13.55h2.45l0,18.63h-3.38l-9.71-16.3v2.26l0,14Z"/><path class="cls-1" d="M282.3,30l0-18.63,12.14,0v2h-9.71v6l9.26,0v2h-9.26l0,8.59Z"/><path class="cls-1" d="M304.15,30l0-16.61h-6.44v-2l15.27,0v2l-6.42,0,0,16.61Z"/></svg>